M48
METRIC,TZ
T01C0.5080
T02C1.0160
T03C0.7620
%
T01
X+15072Y-33364
X+76Y-33364
X+15872Y-5303
X+26593Y-5283
X-8421Y+23843
X-8255Y+32385
X+8890Y+27305
X+0Y+27305
X-16042Y-16677
X-26035Y-16510
X+31115Y-13970
X+15875Y-13970
X-21184Y-6298
X-33780Y-6194
X-5715Y-6350
X+4445Y-6350
T02
X+12700Y-30250
X+10160Y-30250
X+7620Y-30250
X+5080Y-30250
X+2540Y-30250
X+0Y-30250
X-2540Y-30250
X-5080Y-30250
X-7620Y-30250
X-10160Y-30250
X-12700Y-30250
X-15240Y-30250
X+0Y-26670
X+2540Y-26670
X+5080Y-26670
X+7620Y-26670
X+10160Y-26670
X+12700Y-26670
X+15240Y-26670
X+17780Y-26670
X+20320Y-26670
X+22860Y-26670
X-2540Y-20250
X-5080Y-20250
X-7620Y-20250
X-10160Y-20250
X-12700Y-20250
X-15240Y-20250
X-17780Y-20250
X-20320Y-20250
X-22860Y-20250
X-25400Y-20250
X+11772Y+17506
X+11772Y+14966
X+11772Y+12426
X+11772Y+9886
X+11772Y+7346
X+11772Y+4806
X+11772Y+2266
X+11772Y-274
X-11028Y-274
X-11028Y+2266
X-11028Y+4806
X-11028Y+7346
X-11028Y+9886
X-11028Y+12426
X-11028Y+14966
X-11028Y+17506
X-3418Y+17282
X-878Y+17282
X+1662Y+17282
X+4202Y+17282
X+4202Y+14742
X+1662Y+14742
X-878Y+14742
X-3418Y+14742
X+16510Y+29210
X+19050Y+29210
X+21590Y+29210
X+24130Y+29210
X+26670Y+29210
X+29210Y+29210
X+31750Y+29210
X+34290Y+29210
X+34290Y+7620
X+31750Y+7620
X+29210Y+7620
X+26670Y+7620
X+24130Y+7620
X+21590Y+7620
X+19050Y+7620
X+16510Y+7620
X-25000Y+30000
X-26702Y+30000
X-28404Y+30000
X-30105Y+30000
X-31807Y+30000
X-24130Y+19050
X-24130Y+24130
X-16200Y+27200
X-16200Y+32280
X-28560Y+12050
X-33640Y+12050
X+16510Y+32258
X+19050Y+32258
X+21590Y+32258
X+24130Y+32258
X+26670Y+32258
X+29210Y+32258
X+31750Y+32258
X+34290Y+32258
X+2540Y+32258
X+0Y+32258
X-2540Y+32258
T03
X+29272Y-5403
X+29272Y+4757
X-28635Y-1420
X-31175Y-1420
M30
